<svg xmlns="http://www.w3.org/2000/svg" viewBox="0 0 64 64" width="64" height="64">
  <defs>
    <linearGradient id="g" x1="0" y1="0" x2="1" y2="1">
      <stop offset="0%" stop-color="#8b5cf6"/>
      <stop offset="50%" stop-color="#d946ef"/>
      <stop offset="100%" stop-color="#22d3ee"/>
    </linearGradient>
  </defs>
  <rect width="64" height="64" rx="16" fill="url(#g)"/>
  <g fill="#fff">
    <rect x="16" y="28" width="8" height="3" rx="1.5"/>
    <rect x="18.5" y="25.5" width="3" height="8" rx="1.5"/>
    <circle cx="42" cy="28" r="2.6"/>
    <circle cx="47.5" cy="33.5" r="2.6"/>
    <path d="M24 22h16a12 12 0 0 1 11.9 10.4l1.2 8.6a5 5 0 0 1-9.3 3.2l-2.1-3.6a4 4 0 0 0-3.5-2H29.9a4 4 0 0 0-3.5 2l-2.1 3.6A5 5 0 0 1 15 41l1.2-8.6A12 12 0 0 1 24 22z" fill="none" stroke="#fff" stroke-width="3.2" opacity="0.95"/>
  </g>
</svg>
